<svg width="120" height="120" viewBox="0 0 120 120" fill="none" xmlns="http://www.w3.org/2000/svg">
<path d="M75.9331 32.714L75.9342 32.7149C80.4178 36.6381 82.9286 41.9562 82.9286 47.6786C82.9286 56.1123 77.3736 63.5873 68.9645 66.8234L75.9331 32.714ZM75.9331 32.714C71.6278 28.954 65.9686 26.8929 60 26.8929C54.0343 26.8929 48.3736 28.9388 44.0658 32.7149L75.9331 32.714ZM1.5 60C1.5 27.6945 27.6945 1.5 60 1.5C92.3055 1.5 118.5 27.6945 118.5 60C118.5 92.3055 92.3055 118.5 60 118.5C27.6945 118.5 1.5 92.3055 1.5 60ZM53.1429 89.4643C53.1429 93.2525 56.2118 96.3214 60 96.3214C63.7882 96.3214 66.8571 93.2525 66.8571 89.4643C66.8571 85.676 63.7882 82.6071 60 82.6071C56.2118 82.6071 53.1429 85.676 53.1429 89.4643ZM66.6642 68.6374C67.2312 67.8154 68.0327 67.1833 68.9642 66.8235L44.0647 32.7158C39.5818 36.6389 37.0714 41.9566 37.0714 47.6786V48.6964C37.0714 50.1141 38.2251 51.2679 39.6429 51.2679H46.0714C47.4891 51.2679 48.6429 50.1141 48.6429 48.6964V47.6786C48.6429 42.8454 53.4757 38.4643 60 38.4643C66.5243 38.4643 71.3571 42.8454 71.3571 47.6786C71.3571 51.0943 68.9234 54.4325 64.8206 56.0144C61.6969 57.2082 59.0447 59.3017 57.1469 62.038C55.1942 64.8492 54.2143 68.2049 54.2143 71.5848V74.4643C54.2143 75.882 55.368 77.0357 56.7857 77.0357H63.2143C64.632 77.0357 65.7857 75.882 65.7857 74.4643V71.4281C65.7918 70.4308 66.0979 69.4584 66.6642 68.6374Z" fill="black" stroke="white" stroke-width="3"/>
</svg>
