<svg width="66" height="126" viewBox="0 0 66 126" fill="none" xmlns="http://www.w3.org/2000/svg">
<path d="M4.28282 31.2191L4.63085 31.42H5.03269H14.1575H15.1335L15.5289 30.5277C16.5341 28.2591 17.5588 26.6811 18.972 25.6436C20.3598 24.6246 22.3088 23.9937 25.4307 24.02C28.1794 24.0431 31.2717 25.8164 33.3433 28.5593C35.3953 31.2763 36.2242 34.6414 34.9451 37.7015C33.4488 41.2813 32.014 43.6892 30.4546 46.2303C30.3487 46.4028 30.2423 46.5759 30.1352 46.75C28.6554 49.1568 27.0545 51.7606 25.2494 55.5557L26.604 56.2L25.2494 55.5558C21.2987 63.8622 19.9566 76.4008 25.1808 86.9078L25.5864 87.7236L26.4973 87.7398L37.7431 87.9398L39.5963 87.9727L39.2422 86.1534C37.9667 79.601 40.6766 73.2692 44.6797 67.2935C46.6702 64.3221 48.9334 61.5066 51.0964 58.8495C51.2586 58.6504 51.4203 58.4518 51.5815 58.254C53.548 55.841 55.4278 53.5342 56.8278 51.4312L55.5791 50.6L56.8278 51.4312C59.7844 46.9894 61.4822 43.8085 62.4258 40.7532C63.3738 37.6837 63.5284 34.84 63.5624 31.1739L63.5625 31.1614L63.5625 31.1488C63.508 23.8714 60.8659 16.589 55.1355 10.6761C49.3536 4.71024 41.134 1.52423 31.0899 1.50005C25.8598 1.48751 18.7367 3.95367 12.901 7.40263C9.96229 9.13947 7.267 11.1731 5.25066 13.3556C3.25722 15.5133 1.78852 17.9687 1.61509 20.5391C1.33125 24.7458 1.59374 27.2145 2.15922 28.7463C2.45522 29.5481 2.8446 30.1235 3.30136 30.5471C3.67042 30.8893 4.08019 31.1097 4.23367 31.1923C4.25555 31.2041 4.27222 31.213 4.28282 31.2191ZM31.6465 94.2601C23.2975 94.2601 16.5394 101.013 16.5394 109.36C16.5394 117.701 23.2918 124.5 31.6465 124.5C40.0014 124.5 46.7536 117.701 46.7536 109.36C46.7536 101.013 39.9956 94.2601 31.6465 94.2601Z" fill="white" stroke="black" stroke-width="3"/>
</svg>
