<svg width="68" height="128" viewBox="0 0 68 128" fill="none" xmlns="http://www.w3.org/2000/svg">
<path d="M5.03286 32.6522L5.4969 32.92H6.03269H15.1575H16.4588L16.986 31.7303C17.9788 29.4897 18.9597 28.0071 20.2679 27.0466C21.5422 26.111 23.3742 25.4943 26.4265 25.52C28.9812 25.5415 31.9402 27.2071 33.9443 29.8606C35.9223 32.4796 36.6754 35.6578 35.4838 38.5087C34.0025 42.0525 32.5838 44.4344 31.0284 46.9688C30.9224 47.1415 30.8158 47.315 30.7084 47.4896C29.228 49.8973 27.6147 52.521 25.7979 56.341L27.604 57.2L25.7978 56.341C21.7947 64.7577 20.4277 77.4601 25.7331 88.1304L26.2739 89.2181L27.4884 89.2397L38.7342 89.4397L41.2052 89.4836L40.7329 87.0579C39.4962 80.7045 42.1136 74.5152 46.0951 68.5718C48.0712 65.6219 50.3207 62.8228 52.4842 60.1652C52.6475 59.9646 52.8106 59.7645 52.9732 59.5649C54.9347 57.158 56.8299 54.8325 58.244 52.7083L58.244 52.7082C61.2097 48.2528 62.9387 45.0246 63.9035 41.9008C64.8742 38.7579 65.0283 35.8528 65.0624 32.1786L65.0626 32.1618L65.0624 32.1451C65.0071 24.7457 62.3189 17.338 56.4945 11.3282C50.6016 5.24761 42.2432 2.02449 32.0911 2.00005C26.7376 1.98722 19.5247 4.49817 13.6466 7.97219C10.6797 9.72567 7.94202 11.7881 5.88341 14.0163C3.85532 16.2115 2.30072 18.771 2.11623 21.5054C1.83126 25.7289 2.08682 28.2851 2.69016 29.9195C3.00952 30.7846 3.43933 31.4296 3.96139 31.9137C4.38998 32.3111 4.87815 32.5699 5.00486 32.6371C5.01867 32.6444 5.02818 32.6495 5.03286 32.6522ZM32.6465 94.7601C24.0216 94.7601 17.0394 101.737 17.0394 110.36C17.0394 118.976 24.014 126 32.6465 126C41.2792 126 48.2536 118.975 48.2536 110.36C48.2536 101.737 41.2715 94.7601 32.6465 94.7601Z" fill="white" stroke="black" stroke-width="4"/>
</svg>
