<svg width="197" height="392" viewBox="0 0 197 392" fill="none" xmlns="http://www.w3.org/2000/svg">
<path d="M9.50479 91.8763L9.96883 92.1441H10.5046H39.7039H41.0052L41.5324 90.9543C44.8187 83.5379 48.343 77.9544 53.4532 74.2024C58.5295 70.4754 65.4219 68.3766 75.8019 68.464C85.6842 68.5473 96.326 74.8244 103.333 84.1023C110.314 93.3456 113.39 105.161 108.808 116.125C103.935 127.781 99.2542 135.633 94.241 143.802C93.9034 144.352 93.5642 144.903 93.2234 145.458C88.4911 153.155 83.4368 161.375 77.7266 173.381C65.378 199.344 61.2232 238.551 77.4857 271.258L78.0265 272.346L79.241 272.368L115.228 273.008L117.699 273.052L117.227 270.626C112.928 248.544 122.118 227.484 135.049 208.181C141.499 198.551 148.818 189.451 155.737 180.951C156.249 180.322 156.759 179.697 157.266 179.074C163.587 171.316 169.517 164.039 173.918 157.428C183.329 143.291 188.586 133.376 191.487 123.984C194.394 114.573 194.892 105.817 195 94.1306L195 94.1139L195 94.0971C194.831 71.4927 186.634 48.8903 168.823 30.5122C150.943 12.0635 125.418 2.07606 93.881 2.00014C77.8352 1.96168 55.5448 9.60253 37.1079 20.4989C27.8617 25.9636 19.4743 32.3102 13.2588 39.038C7.07375 45.7328 2.85494 53.007 2.36195 60.3135C1.46 73.6812 2.33876 81.0912 3.93622 85.4185C4.75265 87.63 5.77224 89.0813 6.86817 90.0975C7.74845 90.9137 8.6691 91.417 9.22677 91.7219C9.33375 91.7804 9.42737 91.8316 9.50479 91.8763ZM95.6688 298.832C70.497 298.832 50.1261 319.191 50.1261 344.352C50.1261 369.506 70.4893 390 95.6688 390C120.849 390 141.212 369.506 141.212 344.352C141.212 319.191 120.841 298.832 95.6688 298.832Z" fill="white" stroke="black" stroke-width="4"/>
</svg>
