<svg width="64" height="64" viewBox="0 0 64 64" fill="none" xmlns="http://www.w3.org/2000/svg">
<path d="M19.498 32.75C22.2595 32.75 24.498 30.5114 24.498 27.75C24.498 24.9886 22.2595 22.75 19.498 22.75C16.7366 22.75 14.498 24.9886 14.498 27.75C14.498 30.5114 16.7366 32.75 19.498 32.75Z" fill="white"/>
<path d="M44.498 32.75C47.2595 32.75 49.498 30.5114 49.498 27.75C49.498 24.9886 47.2595 22.75 44.498 22.75C41.7366 22.75 39.498 24.9886 39.498 27.75C39.498 30.5114 41.7366 32.75 44.498 32.75Z" fill="white"/>
<path d="M57.148 26.452C56.717 9.571 44.303 2 31.998 2C19.695 2 7.28101 9.571 6.84801 26.452C3.52501 26.897 2.00001 29.661 2.00001 32.244C1.99801 33.776 2.49401 35.194 3.39601 36.239C4.02301 36.968 5.11501 37.815 6.87801 38.042C7.30001 42.817 11.024 48.847 19.679 51.841C19.818 51.995 19.97 52.138 20.12 52.282C21.18 57.807 26.1 62 31.998 62C37.9 62 42.818 57.805 43.877 52.281C44.027 52.136 44.18 51.994 44.318 51.84C52.972 48.846 56.697 42.817 57.119 38.039C60.465 37.607 62 34.834 62 32.245C62 29.661 60.475 26.897 57.148 26.452V26.452ZM31.998 60.537C26.119 60.537 21.353 55.848 21.353 50.06C21.353 45.609 24.177 44.984 28.154 44.931C28.224 44.382 28.648 43.951 29.183 43.951H34.814C35.349 43.951 35.773 44.383 35.841 44.931C39.818 44.984 42.644 45.611 42.644 50.06C42.645 55.848 37.877 60.537 31.998 60.537V60.537ZM44.082 49.777C43.941 44.369 39.939 43.623 37.037 43.498C36.039 42.023 34.164 41.023 31.998 41.023C29.836 41.023 27.959 42.023 26.961 43.498C24.059 43.623 20.057 44.369 19.916 49.777C18.809 48.111 18.209 46.082 18.209 43.72C18.209 39.818 19.732 39.054 22.365 39.054C23.494 39.054 24.834 39.208 26.252 39.372C27.996 39.575 29.973 39.804 32.037 39.804C34.103 39.804 36.076 39.575 37.818 39.372C39.226 39.208 40.556 39.054 41.675 39.054C44.343 39.054 45.788 39.798 45.788 43.72C45.789 46.082 45.189 48.109 44.082 49.777V49.777ZM56.193 36.146H55.224V37.121C55.224 40.928 52.624 45.926 46.185 48.986C46.876 47.435 47.24 45.67 47.24 43.72C47.24 39.423 45.576 37.591 41.676 37.591C40.473 37.591 39.104 37.749 37.653 37.919C35.95 38.116 34.02 38.341 32.038 38.341C30.058 38.341 28.124 38.116 26.417 37.919C24.958 37.751 23.577 37.591 22.366 37.591C19.755 37.591 16.757 38.288 16.757 43.72C16.757 45.669 17.122 47.435 17.814 48.986C11.373 45.925 8.77301 40.927 8.77301 37.121V36.146H7.80501C6.53001 36.146 5.53701 35.746 4.85601 34.957C4.26201 34.268 3.93601 33.305 3.93601 32.245C3.93601 30.358 4.95201 28.342 7.80501 28.342H8.77201V27.366C8.77201 18.251 12.256 12.24 17.118 8.592C20.8 13.023 24.708 15.648 32.968 15.659C29.097 12.732 31.032 8.829 31.032 8.829C31.032 8.829 38.774 13.707 45.548 11.756C45.548 11.756 41.677 10.78 40.71 7.854C40.71 7.854 43.601 8.581 46.261 8.148C51.445 11.744 55.226 17.868 55.226 27.366V28.342H56.195C59.049 28.342 60.066 30.359 60.066 32.245C60.064 34.131 59.047 36.146 56.193 36.146" fill="white"/>
<path d="M35.8771 46.842H35.8691V47.705C35.8691 48.324 35.3961 48.828 34.8141 48.828H29.1831C28.5991 48.828 28.1261 48.324 28.1261 47.705V46.842H28.1181C25.7041 46.842 23.9561 47.293 23.9561 50.061C23.9561 54.176 27.8171 56.995 31.9971 56.995C36.1791 56.995 40.0401 54.177 40.0401 50.061C40.0411 47.293 38.2911 46.842 35.8771 46.842V46.842ZM35.6371 54.631C34.5041 54.819 33.2971 54.926 31.9981 54.926C30.7011 54.926 29.4941 54.819 28.3611 54.631C26.6561 53.719 25.4081 52.147 25.4081 50.061C25.4081 49.131 25.4781 48.581 26.7631 48.385C27.0541 49.483 28.0291 50.293 29.1831 50.293H29.4761C30.277 50.6167 31.1332 50.7818 31.9971 50.779C32.8616 50.7816 33.7184 50.6165 34.5201 50.293H34.8131C35.9671 50.293 36.9401 49.484 37.2311 48.387C37.5711 48.44 37.8811 48.524 38.1021 48.66C38.2481 48.75 38.5881 48.961 38.5881 50.06C38.5901 52.146 37.3421 53.719 35.6371 54.631Z" fill="white"/>
<path d="M36.178 34.813H27.819C25.73 34.813 27.819 37.811 31.999 37.811C36.178 37.809 38.27 34.813 36.178 34.813Z" fill="white"/>
</svg>
