<svg width="28" height="28" viewBox="0 0 28 28" fill="none" xmlns="http://www.w3.org/2000/svg">
<path d="M8.52299 26H20.375C21.0575 25.9997 21.7119 25.7284 22.1944 25.2457C22.6769 24.763 22.948 24.1085 22.948 23.426V12.01C25.361 11.914 26.808 9.235 25.518 7.153L24.764 5.937C24.4789 5.4766 24.081 5.09663 23.608 4.83307C23.135 4.56952 22.6025 4.43112 22.061 4.431H19.909V3.48C19.909 3.08765 19.7532 2.71136 19.4759 2.43384C19.1985 2.15631 18.8223 2.00027 18.43 2C17.9483 2.00013 17.4714 2.09514 17.0264 2.27959C16.5814 2.46405 16.1771 2.73434 15.8366 3.07504C15.4961 3.41574 15.226 3.82017 15.0418 4.26524C14.8576 4.71031 14.7629 5.18731 14.763 5.669V10.854C12.846 11.041 11.399 11.949 10.336 13.225C9.16199 14.635 8.47099 16.473 8.05899 18.238C7.64599 20.013 7.49899 21.776 7.45599 23.088C7.44003 23.5585 7.4357 24.0293 7.44299 24.5H6.45499C5.8789 24.4997 5.31544 24.3312 4.83382 24.0151C4.3522 23.699 3.97341 23.2491 3.74398 22.7206C3.51455 22.1922 3.44448 21.6083 3.54237 21.0406C3.64025 20.4728 3.90184 19.9461 4.29499 19.525L5.67499 18.045C6.62638 17.0248 7.14454 15.675 7.12029 14.2802C7.09604 12.8855 6.53127 11.5546 5.54499 10.568L4.19199 9.213C4.12333 9.13931 4.04053 9.08021 3.94853 9.03922C3.85653 8.99823 3.75722 8.97618 3.65652 8.97441C3.55581 8.97263 3.45578 8.99116 3.3624 9.02888C3.26901 9.0666 3.18417 9.12274 3.11296 9.19396C3.04174 9.26518 2.98559 9.35001 2.94787 9.4434C2.91015 9.53679 2.89163 9.63682 2.8934 9.73752C2.89518 9.83822 2.91722 9.93754 2.95821 10.0295C2.9992 10.1215 3.05831 10.2043 3.13199 10.273L4.48699 11.629C5.19858 12.3403 5.60603 13.3002 5.62338 14.3062C5.64073 15.3122 5.26663 16.2856 4.57999 17.021L3.19999 18.501C2.60832 19.1359 2.21478 19.9296 2.06762 20.7849C1.92047 21.6402 2.0261 22.5198 2.37156 23.316C2.71702 24.1121 3.28729 24.7901 4.01245 25.2669C4.73762 25.7436 5.58615 25.9984 6.45399 26H8.52199H8.52299ZM18.41 3.5V5.182C18.41 5.597 18.745 5.932 19.16 5.932H22.06C22.643 5.932 23.183 6.233 23.49 6.728L24.243 7.945C24.938 9.065 24.133 10.514 22.814 10.514H22.198C21.9991 10.514 21.8083 10.593 21.6677 10.7337C21.527 10.8743 21.448 11.0651 21.448 11.264V23.426C21.448 24.019 20.968 24.5 20.375 24.5H19.301V23.426C19.3013 22.8485 19.1878 22.2766 18.967 21.743C18.7462 21.2093 18.4224 20.7244 18.0142 20.3159C17.606 19.9074 17.1213 19.5833 16.5878 19.3622C16.0543 19.141 15.4825 19.0271 14.905 19.027H13.385C13.1861 19.027 12.9953 19.106 12.8547 19.2467C12.714 19.3873 12.635 19.5781 12.635 19.777C12.635 19.9759 12.714 20.1667 12.8547 20.3073C12.9953 20.448 13.1861 20.527 13.385 20.527H14.905C16.505 20.527 17.802 21.825 17.802 23.426V24.5H8.94199C8.93453 24.0456 8.93853 23.5912 8.95399 23.137C8.99599 21.883 9.13499 20.225 9.51899 18.579C9.90499 16.924 10.525 15.341 11.488 14.186C12.428 13.057 13.705 12.318 15.513 12.318C15.6115 12.318 15.709 12.2986 15.8 12.2609C15.891 12.2232 15.9737 12.168 16.0433 12.0983C16.113 12.0287 16.1682 11.946 16.2059 11.855C16.2436 11.764 16.263 11.6665 16.263 11.568V5.668C16.263 4.478 17.222 3.511 18.41 3.5V3.5Z" fill="white"/>
</svg>
