<svg width="24" height="24" viewBox="0 0 24 24" fill="none" xmlns="http://www.w3.org/2000/svg">
<path d="M13.25 2H16.435C16.944 2 17.442 2.141 17.875 2.408L20.643 4.111C20.7522 4.17814 20.8423 4.27213 20.9048 4.38399C20.9673 4.49585 21.0001 4.62186 21 4.75V6.25C21 6.84674 20.763 7.41903 20.341 7.84099C19.9191 8.26295 19.3468 8.5 18.75 8.5H18.5V17.547C19.497 17.681 20.195 18.102 20.595 18.822C20.818 19.225 20.913 19.662 20.957 20.065C21 20.456 21 20.865 21 21.225V21.25C21 21.4489 20.921 21.6397 20.7804 21.7803C20.6397 21.921 20.449 22 20.25 22H5.83304C4.99396 22.0007 4.17782 21.7261 3.50987 21.2183C2.84192 20.7104 2.35906 19.9975 2.13539 19.1887C1.91172 18.38 1.95961 17.5202 2.27169 16.7414C2.58378 15.9625 3.14283 15.3075 3.86304 14.877C4.0337 14.7746 4.23805 14.7442 4.43112 14.7925C4.62419 14.8408 4.79016 14.9638 4.89254 15.1345C4.99491 15.3052 5.02529 15.5095 4.977 15.7026C4.92871 15.8956 4.8057 16.0616 4.63504 16.164C4.19651 16.4259 3.85604 16.8245 3.6659 17.2985C3.47576 17.7726 3.44646 18.296 3.58248 18.7883C3.71851 19.2806 4.01235 19.7147 4.41891 20.0239C4.82546 20.3332 5.32226 20.5004 5.83304 20.5C6.15204 20.5 6.35004 20.417 6.48204 20.324C6.62104 20.226 6.73004 20.086 6.81304 19.917C6.91784 19.7007 6.98126 19.4666 7.00004 19.227V19.192L7.00404 19.049C7.03395 18.3144 7.12088 17.5832 7.26404 16.862C7.52404 15.571 8.06104 13.894 9.21604 12.723C10.064 11.863 10.525 10.604 10.763 9.359C11 8.13 11 7.008 11 6.5V4.25C11 3.65326 11.2371 3.08097 11.659 2.65901C12.081 2.23705 12.6533 2 13.25 2V2ZM7.75004 19.25L8.50004 19.276V19.282L8.49904 19.292L8.49704 19.32C8.48749 19.4475 8.47079 19.5744 8.44704 19.7C8.40804 19.913 8.33504 20.2 8.19704 20.5H15.447C15.357 20.006 15.107 19.494 14.434 19.18C14.2806 19.113 14.1182 19.0686 13.952 19.048C13.7197 19.0121 13.4851 18.9937 13.25 18.993L12.967 18.997L12.826 18.999H12.766C12.6657 19.004 12.5654 18.9888 12.471 18.9543C12.3766 18.9198 12.2902 18.8667 12.2167 18.7982C12.1433 18.7296 12.0844 18.647 12.0435 18.5552C12.0026 18.4635 11.9805 18.3644 11.9786 18.2639C11.9768 18.1635 11.9951 18.0637 12.0325 17.9704C12.07 17.8772 12.1258 17.7925 12.1966 17.7212C12.2674 17.6499 12.3519 17.5936 12.4449 17.5556C12.5379 17.5176 12.6376 17.4987 12.738 17.5L12.8 17.499L12.943 17.497L13.25 17.493C13.485 17.493 13.745 17.509 14 17.54V15.253C14 15.0541 14.0791 14.8633 14.2197 14.7227C14.3604 14.582 14.5511 14.503 14.75 14.503C14.949 14.503 15.1397 14.582 15.2804 14.7227C15.421 14.8633 15.5 15.0541 15.5 15.253V18.057C16.565 18.739 16.874 19.76 16.963 20.5H19.487C19.4825 20.4098 19.4755 20.3198 19.466 20.23C19.433 19.929 19.372 19.71 19.283 19.55C19.153 19.316 18.85 19 17.75 19C17.5511 19 17.3604 18.921 17.2197 18.7803C17.0791 18.6397 17 18.4489 17 18.25V7.75C17 7.55109 17.0791 7.36032 17.2197 7.21967C17.3604 7.07902 17.5511 7 17.75 7H18.75C18.949 7 19.1397 6.92098 19.2804 6.78033C19.421 6.63968 19.5 6.44891 19.5 6.25V5.17L17.089 3.685C16.8924 3.56397 16.666 3.49992 16.435 3.5H13.249C13.0503 3.50026 12.8598 3.5794 12.7194 3.72002C12.5789 3.86065 12.5 4.05126 12.5 4.25V6.482C12.5058 6.68415 12.5778 6.87881 12.705 7.036C12.806 7.15 12.965 7.25 13.25 7.25C13.537 7.25 13.703 7.149 13.806 7.031C13.938 6.86673 14.0069 6.66062 14 6.45C14 6.25109 14.0791 6.06032 14.2197 5.91967C14.3604 5.77902 14.5511 5.7 14.75 5.7C14.949 5.7 15.1397 5.77902 15.2804 5.91967C15.421 6.06032 15.5 6.25109 15.5 6.45C15.5 7.004 15.323 7.575 14.934 8.019C14.534 8.476 13.95 8.75 13.25 8.75C12.938 8.75 12.651 8.696 12.395 8.596C12.3556 8.94621 12.3029 9.29479 12.237 9.641C11.975 11.007 11.436 12.609 10.284 13.777C9.43904 14.633 8.97604 15.957 8.73504 17.157C8.6007 17.8361 8.5221 18.5251 8.50004 19.217V19.276L7.75004 19.25V19.25Z" fill="white"/>
</svg>
